# Blender 4.0.2
# www.blender.org
o statue_base_01
v 0.250000 0.151297 -0.250000
v 0.250000 0.566718 -0.250000
v 0.217113 0.629382 -0.217113
v 0.217113 0.691811 -0.217113
v 0.267174 0.566718 -0.267174
v 0.267174 0.629382 -0.267174
v 0.368478 0.092375 -0.368478
v 0.368478 0.000000 -0.368478
v 0.265237 0.151297 -0.265237
v 0.265237 0.092375 -0.265237
v 0.339122 0.151297 -0.191351
v 0.191351 0.151297 -0.339122
v 0.192749 0.566718 -0.341599
v 0.341599 0.566718 -0.192749
v 0.341599 0.629382 -0.192749
v 0.192749 0.629382 -0.341599
v 0.191351 0.092375 -0.339122
v 0.339122 0.092375 -0.191351
v 0.291419 0.000000 -0.445537
v 0.445537 0.000000 -0.291419
v 0.445537 0.092375 -0.291419
v 0.291419 0.092375 -0.445537
v 0.290407 0.691811 -0.143819
v 0.143819 0.691811 -0.290407
v 0.143819 0.629382 -0.290407
v 0.290407 0.629382 -0.143819
v 0.250000 0.151297 -0.149225
v 0.250000 0.566718 -0.149225
v 0.150467 0.151297 -0.250000
v 0.150467 0.566718 -0.250000
v -0.000000 0.151297 -0.250000
v -0.000000 0.151297 -0.339122
v -0.000000 0.566718 -0.341599
v -0.000000 0.691811 -0.290407
v 0.250000 0.151297 0.000000
v 0.250000 0.566718 0.000000
v 0.341599 0.566718 0.000000
v 0.290407 0.629382 -0.000000
v 0.290407 0.691811 -0.000000
v 0.339122 0.092375 -0.000000
v 0.445537 0.000000 -0.000000
v -0.250000 0.151297 -0.250000
v -0.250000 0.566718 -0.250000
v -0.217113 0.629382 -0.217113
v -0.217113 0.691811 -0.217113
v -0.267174 0.566718 -0.267174
v -0.267174 0.629382 -0.267174
v -0.368478 0.092375 -0.368478
v -0.368478 0.000000 -0.368478
v -0.265237 0.151297 -0.265237
v -0.265237 0.092375 -0.265237
v -0.191351 0.151297 -0.339122
v -0.339122 0.151297 -0.191351
v -0.341599 0.566718 -0.192749
v -0.192749 0.566718 -0.341599
v -0.192749 0.629382 -0.341599
v -0.341599 0.629382 -0.192749
v -0.339122 0.092375 -0.191351
v -0.191351 0.092375 -0.339122
v -0.445537 0.000000 -0.291419
v -0.291419 0.000000 -0.445537
v -0.291419 0.092375 -0.445537
v -0.445537 0.092375 -0.291419
v -0.143819 0.691811 -0.290407
v -0.290407 0.691811 -0.143819
v -0.290407 0.629382 -0.143819
v -0.143819 0.629382 -0.290407
v -0.149225 0.151297 -0.250000
v -0.149225 0.566718 -0.250000
v -0.250000 0.151297 -0.150467
v -0.250000 0.566718 -0.150467
v -0.250000 0.151297 0.000000
v -0.250000 0.566718 0.000000
v -0.339122 0.151297 -0.000000
v -0.339122 0.092375 -0.000000
v -0.445537 0.092375 -0.000000
v -0.290407 0.691811 -0.000000
v -0.000000 0.566718 -0.250000
v -0.000000 0.629382 -0.341599
v -0.000000 0.629382 -0.290407
v -0.000000 0.092375 -0.339122
v 0.000000 0.092375 -0.445537
v 0.000000 0.000000 -0.445537
v -0.250000 0.151297 0.250000
v -0.250000 0.566718 0.250000
v -0.217113 0.629382 0.217113
v -0.217113 0.691811 0.217113
v -0.267174 0.566718 0.267174
v -0.267174 0.629382 0.267174
v -0.368478 0.092375 0.368478
v -0.368478 0.000000 0.368478
v -0.265237 0.151297 0.265237
v -0.265237 0.092375 0.265237
v -0.339122 0.151297 0.191351
v -0.191351 0.151297 0.339122
v -0.192749 0.566718 0.341599
v -0.341599 0.566718 0.192749
v -0.341599 0.629382 0.192749
v -0.192749 0.629382 0.341599
v -0.191351 0.092375 0.339122
v -0.339122 0.092375 0.191351
v -0.291419 0.000000 0.445537
v -0.445537 0.000000 0.291419
v -0.445537 0.092375 0.291419
v -0.291419 0.092375 0.445537
v -0.290407 0.691811 0.143819
v -0.143819 0.691811 0.290407
v -0.143819 0.629382 0.290407
v -0.290407 0.629382 0.143819
v -0.250000 0.151297 0.149225
v -0.250000 0.566718 0.149225
v -0.150467 0.151297 0.250000
v -0.150467 0.566718 0.250000
v -0.000000 0.629382 0.341599
v 0.000000 0.092375 0.445537
v 0.000000 0.000000 0.445537
v -0.000000 0.629382 0.290407
v -0.000000 0.691811 0.290407
v -0.341599 0.566718 0.000000
v -0.341599 0.629382 0.000000
v -0.290407 0.629382 -0.000000
v -0.445537 0.000000 -0.000000
v 0.250000 0.151297 0.250000
v 0.250000 0.566718 0.250000
v 0.217113 0.629382 0.217113
v 0.217113 0.691811 0.217113
v 0.267174 0.566718 0.267174
v 0.267174 0.629382 0.267174
v 0.368478 0.092375 0.368478
v 0.368478 0.000000 0.368478
v 0.265237 0.151297 0.265237
v 0.265237 0.092375 0.265237
v 0.191351 0.151297 0.339122
v 0.339122 0.151297 0.191351
v 0.341599 0.566718 0.192749
v 0.192749 0.566718 0.341599
v 0.192749 0.629382 0.341599
v 0.341599 0.629382 0.192749
v 0.339122 0.092375 0.191351
v 0.191351 0.092375 0.339122
v 0.445537 0.000000 0.291419
v 0.291419 0.000000 0.445537
v 0.291419 0.092375 0.445537
v 0.445537 0.092375 0.291419
v 0.143819 0.691811 0.290407
v 0.290407 0.691811 0.143819
v 0.290407 0.629382 0.143819
v 0.143819 0.629382 0.290407
v 0.149225 0.151297 0.250000
v 0.149225 0.566718 0.250000
v 0.250000 0.151297 0.150467
v 0.250000 0.566718 0.150467
v 0.339122 0.151297 -0.000000
v 0.341599 0.629382 0.000000
v 0.445537 0.092375 -0.000000
v -0.000000 0.151297 0.250000
v -0.000000 0.566718 0.250000
v -0.000000 0.566718 0.341599
v -0.000000 0.151297 0.339122
v -0.000000 0.092375 0.339122
v -0.150467 0.348557 0.250000
v -0.150467 0.521839 0.250000
v 0.149225 0.348557 0.250000
v 0.149225 0.521839 0.250000
v -0.150467 0.521839 0.261750
v -0.150467 0.348557 0.261750
v 0.149225 0.348557 0.261750
v 0.149225 0.521839 0.261750
v 0.000000 0.000000 0.000000
v 0.291419 0.000000 -0.000000
v -0.291419 0.000000 -0.000000
v -0.000000 0.691811 0.000000
v -0.143819 0.691811 -0.000000
v -0.217113 0.691811 -0.000000
v 0.217113 0.691811 -0.000000
v 0.143819 0.691811 -0.000000
v 0.368478 0.000000 -0.000000
v -0.368478 0.000000 -0.000000
vn -0.0000 -0.0000 -1.0000
vn -0.0000 -1.0000 -0.0000
vn 1.0000 -0.0000 -0.0000
vn 0.7071 -0.0000 -0.7071
vn -0.0000 1.0000 -0.0000
vn -1.0000 -0.0000 -0.0000
vn -0.7071 -0.0000 -0.7071
vn -0.0000 -0.0000 1.0000
vn -0.7071 -0.0000 0.7071
vn 0.7071 -0.0000 0.7071
vt 0.009650 0.789124
vt 0.180523 0.789123
vt 0.180523 0.830064
vt 0.009650 0.830064
vt 0.819866 0.443680
vt 0.857543 0.443680
vt 0.857543 0.522962
vt 0.819866 0.505570
vt 0.937037 0.816241
vt 0.937037 0.894949
vt 0.912801 0.894949
vt 0.912801 0.816241
vt 0.898059 0.908737
vt 0.898059 0.988020
vt 0.872284 0.988020
vt 0.872284 0.908737
vt 0.872284 0.050706
vt 0.898059 0.050706
vt 0.898059 0.093999
vt 0.872284 0.093999
vt 0.912801 0.937928
vt 0.937037 0.937928
vt 0.937037 0.980908
vt 0.912801 0.980908
vt 0.623913 0.974180
vt 0.623913 0.936184
vt 0.668739 0.936184
vt 0.668739 0.974180
vt 0.973299 0.779111
vt 0.947620 0.779111
vt 0.947620 0.736476
vt 0.973299 0.736476
vt 0.947620 0.677319
vt 0.973299 0.677319
vt 0.627731 0.237226
vt 0.657878 0.267373
vt 0.637752 0.288430
vt 0.607139 0.257817
vt 0.561785 0.190674
vt 0.561785 0.310542
vt 0.518014 0.269382
vt 0.518014 0.190674
vt 0.530089 0.342238
vt 0.498392 0.373935
vt 0.457232 0.330163
vt 0.487623 0.299772
vt 0.597583 0.147921
vt 0.597583 0.207078
vt 0.576526 0.227204
vt 0.576526 0.147921
vt 0.796317 0.584188
vt 0.717035 0.584188
vt 0.717035 0.546511
vt 0.778415 0.546511
vt 0.579087 0.974180
vt 0.579087 0.936184
vt 0.973299 0.821746
vt 0.947620 0.821746
vt 0.872284 0.007413
vt 0.898059 0.007413
vt 0.825114 0.629320
vt 0.855505 0.659711
vt 0.818847 0.676528
vt 0.818847 0.635587
vt 0.717035 0.267373
vt 0.717035 0.288430
vt 0.947620 0.066570
vt 0.947620 0.007413
vt 0.973299 0.007413
vt 0.973299 0.066570
vt 0.009650 0.007413
vt 0.180523 0.007413
vt 0.180523 0.048865
vt 0.009650 0.048864
vt 0.855505 0.738418
vt 0.818847 0.738418
vt 0.459220 0.936184
vt 0.459220 0.974180
vt 0.898059 0.173281
vt 0.872284 0.173281
vt 0.826930 0.553575
vt 0.819866 0.546511
vt 0.009649 0.727233
vt 0.180523 0.727233
vt 0.378525 0.373935
vt 0.378525 0.330163
vt 0.180523 0.110245
vt 0.009650 0.110244
vt 0.668739 0.921443
vt 0.548871 0.921443
vt 0.548871 0.883447
vt 0.668739 0.883447
vt 0.937037 0.007413
vt 0.937037 0.086120
vt 0.912801 0.086120
vt 0.912801 0.007413
vt 0.777396 0.635587
vt 0.716016 0.635587
vt 0.716016 0.598929
vt 0.794723 0.598929
vt 0.009649 0.583461
vt 0.180522 0.583461
vt 0.180522 0.624401
vt 0.009649 0.624401
vt 0.717035 0.340848
vt 0.717035 0.303171
vt 0.796317 0.303171
vt 0.778926 0.340848
vt 0.937037 0.572868
vt 0.937037 0.651575
vt 0.912801 0.651575
vt 0.912801 0.572868
vt 0.898059 0.252565
vt 0.872284 0.252565
vt 0.872284 0.295857
vt 0.898059 0.295857
vt 0.898059 0.339151
vt 0.872284 0.339151
vt 0.912801 0.694554
vt 0.937037 0.694554
vt 0.937037 0.737534
vt 0.912801 0.737534
vt 0.294526 0.974180
vt 0.294526 0.936184
vt 0.339352 0.936184
vt 0.339352 0.974180
vt 0.973299 0.575527
vt 0.947620 0.575527
vt 0.947620 0.532892
vt 0.973299 0.532892
vt 0.947620 0.473736
vt 0.973299 0.473736
vt 0.627731 0.058617
vt 0.597583 0.088765
vt 0.576526 0.068639
vt 0.607139 0.038026
vt 0.258657 0.373935
vt 0.299817 0.330163
vt 0.226960 0.342238
vt 0.195264 0.310542
vt 0.239035 0.269382
vt 0.269426 0.299772
vt 0.717035 0.028470
vt 0.657878 0.028470
vt 0.637752 0.007413
vt 0.717035 0.007413
vt 0.857543 0.364397
vt 0.819866 0.382300
vt 0.249701 0.974180
vt 0.249701 0.936184
vt 0.973299 0.618163
vt 0.947620 0.618163
vt 0.825114 0.847517
vt 0.794723 0.877908
vt 0.777907 0.841250
vt 0.818847 0.841250
vt 0.180522 0.665853
vt 0.009649 0.665853
vt 0.716016 0.877908
vt 0.716016 0.841250
vt 0.129833 0.936184
vt 0.129832 0.974180
vt 0.898059 0.418433
vt 0.872284 0.418433
vt 0.826930 0.333784
vt 0.819866 0.340848
vt 0.009649 0.521570
vt 0.180522 0.521570
vt 0.195264 0.190674
vt 0.239035 0.190674
vt 0.818847 0.799798
vt 0.855505 0.817126
vt 0.009649 0.377798
vt 0.180522 0.377798
vt 0.180522 0.418739
vt 0.009649 0.418739
vt 0.614203 0.443680
vt 0.576526 0.443680
vt 0.576526 0.364397
vt 0.614203 0.381789
vt 0.937037 0.329494
vt 0.937037 0.408202
vt 0.912801 0.408202
vt 0.912801 0.329494
vt 0.898059 0.497716
vt 0.872284 0.497716
vt 0.872284 0.541009
vt 0.898060 0.541009
vt 0.898059 0.584302
vt 0.872284 0.584302
vt 0.912801 0.451181
vt 0.937037 0.451181
vt 0.937037 0.494160
vt 0.912801 0.494160
vt 0.054790 0.883447
vt 0.054790 0.921443
vt 0.009965 0.921443
vt 0.009965 0.883447
vt 0.973299 0.371944
vt 0.947620 0.371944
vt 0.947620 0.329309
vt 0.973299 0.329309
vt 0.947620 0.270153
vt 0.973299 0.270153
vt 0.806339 0.058617
vt 0.776191 0.028470
vt 0.796317 0.007413
vt 0.826930 0.038026
vt 0.195264 0.070806
vt 0.239035 0.111966
vt 0.226960 0.039109
vt 0.258657 0.007413
vt 0.299817 0.051184
vt 0.269426 0.081575
vt 0.836486 0.147921
vt 0.836486 0.088765
vt 0.857543 0.068639
vt 0.857543 0.147921
vt 0.637752 0.303171
vt 0.655655 0.340848
vt 0.099616 0.883447
vt 0.099616 0.921443
vt 0.973299 0.414579
vt 0.947620 0.414579
vt 0.606917 0.847517
vt 0.576526 0.817126
vt 0.613184 0.800309
vt 0.613184 0.841250
vt 0.180522 0.460190
vt 0.009649 0.460190
vt 0.576526 0.738418
vt 0.613184 0.738418
vt 0.219484 0.921443
vt 0.219484 0.883447
vt 0.898059 0.663585
vt 0.872284 0.663585
vt 0.607139 0.333784
vt 0.614203 0.340848
vt 0.009649 0.315907
vt 0.180522 0.315907
vt 0.378525 0.007413
vt 0.378525 0.051184
vt 0.009965 0.936184
vt 0.009965 0.974180
vt 0.654636 0.841250
vt 0.637308 0.877908
vt 0.009649 0.172135
vt 0.180522 0.172136
vt 0.180522 0.213076
vt 0.009649 0.213076
vt 0.637752 0.584188
vt 0.655144 0.546511
vt 0.937037 0.164828
vt 0.912801 0.164828
vt 0.898059 0.742868
vt 0.872284 0.742868
vt 0.872284 0.786160
vt 0.898059 0.786160
vt 0.898059 0.829454
vt 0.872284 0.829454
vt 0.912801 0.207807
vt 0.937037 0.207807
vt 0.937037 0.250786
vt 0.912801 0.250786
vt 0.384177 0.883447
vt 0.384177 0.921443
vt 0.339352 0.921443
vt 0.339352 0.883447
vt 0.973299 0.168361
vt 0.947620 0.168361
vt 0.947620 0.125726
vt 0.973299 0.125726
vt 0.806339 0.237226
vt 0.836486 0.207078
vt 0.857543 0.227204
vt 0.826930 0.257817
vt 0.498392 0.007413
vt 0.457232 0.051184
vt 0.530089 0.039109
vt 0.561785 0.070806
vt 0.518014 0.111966
vt 0.487623 0.081575
vt 0.776191 0.267373
vt 0.796317 0.288430
vt 0.576526 0.522962
vt 0.614203 0.505060
vt 0.429003 0.883447
vt 0.429003 0.921443
vt 0.973299 0.210996
vt 0.947620 0.210996
vt 0.606917 0.629320
vt 0.637308 0.598929
vt 0.654125 0.635587
vt 0.613184 0.635587
vt 0.180522 0.254528
vt 0.009649 0.254527
vt 0.607139 0.553575
vt 0.614203 0.546511
vt 0.613184 0.677038
vt 0.576526 0.659711
vt 0.377634 0.099949
vt 0.288330 0.099949
vt 0.318478 0.069801
vt 0.377634 0.069801
vt 0.748717 0.504605
vt 0.677442 0.504605
vt 0.677441 0.381334
vt 0.748717 0.381334
vt 0.669793 0.381334
vt 0.669793 0.504605
vt 0.756366 0.381334
vt 0.756366 0.504605
vt 0.748717 0.512254
vt 0.677442 0.512254
vt 0.677441 0.373685
vt 0.748717 0.373685
vt 0.530089 0.571936
vt 0.530089 0.723500
vt 0.498392 0.755197
vt 0.498392 0.571936
vt 0.530089 0.420372
vt 0.561785 0.452069
vt 0.561785 0.571936
vt 0.226960 0.420372
vt 0.226960 0.571936
vt 0.195264 0.571936
vt 0.195264 0.452069
vt 0.226960 0.723500
vt 0.195264 0.691804
vt 0.378524 0.388676
vt 0.378524 0.571936
vt 0.258657 0.571936
vt 0.258657 0.388676
vt 0.378524 0.755197
vt 0.258657 0.755197
vt 0.377634 0.248409
vt 0.377634 0.189253
vt 0.497086 0.189253
vt 0.497086 0.248409
vt 0.466938 0.099949
vt 0.436790 0.069801
vt 0.258182 0.248409
vt 0.258182 0.189253
vt 0.377634 0.130097
vt 0.497086 0.130097
vt 0.258182 0.130097
vt 0.377634 0.308705
vt 0.377634 0.278557
vt 0.466938 0.278557
vt 0.436790 0.308705
vt 0.318478 0.308705
vt 0.288330 0.278557
vt 0.498392 0.388676
vt 0.561785 0.691804
s 0
f 29/1/1 30/2/1 2/3/1 1/4/1
f 78/5/2 33/6/2 13/7/2 30/8/2
f 32/9/1 12/10/1 17/11/1 81/12/1
f 37/13/3 14/14/3 15/15/3 154/16/3
f 6/17/4 5/18/4 13/19/4 16/20/4
f 10/21/4 9/22/4 11/23/4 18/24/4
f 8/25/4 7/26/4 21/27/4 20/28/4
f 4/29/4 3/30/4 25/31/4 24/32/4
f 80/33/1 34/34/1 24/32/1 25/31/1
f 3/35/5 26/36/5 15/37/5 6/38/5
f 155/39/5 21/40/5 18/41/5 40/42/5
f 7/43/5 22/44/5 17/45/5 10/46/5
f 80/47/5 25/48/5 16/49/5 79/50/5
f 14/51/2 37/52/2 36/53/2 28/54/2
f 21/40/5 7/43/5 10/46/5 18/41/5
f 19/55/4 22/56/4 7/26/4 8/25/4
f 17/11/4 12/10/4 9/22/4 10/21/4
f 25/48/5 3/35/5 6/38/5 16/49/5
f 23/57/4 26/58/4 3/30/4 4/29/4
f 15/59/4 14/60/4 5/18/4 6/17/4
f 9/61/5 12/62/5 29/63/5 1/64/5
f 26/36/5 38/65/5 154/66/5 15/37/5
f 38/67/3 26/68/3 23/69/3 39/70/3
f 1/71/3 2/72/3 28/73/3 27/74/3
f 12/62/5 32/75/5 31/76/5 29/63/5
f 82/77/1 22/56/1 19/55/1 83/78/1
f 33/79/1 79/80/1 16/20/1 13/19/1
f 13/7/2 5/81/2 2/82/2 30/8/2
f 14/51/2 28/54/2 2/82/2 5/81/2
f 31/83/1 78/84/1 30/2/1 29/1/1
f 22/44/5 82/85/5 81/86/5 17/45/5
f 27/74/3 28/73/3 36/87/3 35/88/3
f 21/89/3 155/90/3 41/91/3 20/92/3
f 11/93/3 153/94/3 40/95/3 18/96/3
f 27/97/5 35/98/5 153/99/5 11/100/5
f 1/64/5 27/97/5 11/100/5 9/61/5
f 70/101/6 71/102/6 43/103/6 42/104/6
f 73/105/2 119/106/2 54/107/2 71/108/2
f 74/109/6 53/110/6 58/111/6 75/112/6
f 33/79/1 55/113/1 56/114/1 79/80/1
f 47/115/7 46/116/7 54/117/7 57/118/7
f 51/119/7 50/120/7 52/121/7 59/122/7
f 49/123/7 48/124/7 62/125/7 61/126/7
f 45/127/7 44/128/7 66/129/7 65/130/7
f 121/131/6 77/132/6 65/130/6 66/129/6
f 44/133/5 67/134/5 56/135/5 47/136/5
f 82/85/5 62/137/5 59/138/5 81/86/5
f 48/139/5 63/140/5 58/141/5 51/142/5
f 121/143/5 66/144/5 57/145/5 120/146/5
f 55/147/2 33/6/2 78/5/2 69/148/2
f 62/137/5 48/139/5 51/142/5 59/138/5
f 60/149/7 63/150/7 48/124/7 49/123/7
f 58/111/7 53/110/7 50/120/7 51/119/7
f 66/144/5 44/133/5 47/136/5 57/145/5
f 64/151/7 67/152/7 44/128/7 45/127/7
f 56/114/7 55/113/7 46/116/7 47/115/7
f 50/153/5 53/154/5 70/155/5 42/156/5
f 67/134/5 80/47/5 79/50/5 56/135/5
f 80/33/1 67/152/1 64/151/1 34/34/1
f 42/104/1 43/103/1 69/157/1 68/158/1
f 53/154/5 74/159/5 72/160/5 70/155/5
f 76/161/6 63/150/6 60/149/6 122/162/6
f 119/163/6 120/164/6 57/118/6 54/117/6
f 54/107/2 46/165/2 43/166/2 71/108/2
f 55/147/2 69/148/2 43/166/2 46/165/2
f 72/167/6 73/168/6 71/102/6 70/101/6
f 63/140/5 76/169/5 75/170/5 58/141/5
f 68/158/1 69/157/1 78/84/1 31/83/1
f 62/125/1 82/77/1 83/78/1 61/126/1
f 52/121/1 32/9/1 81/12/1 59/122/1
f 68/171/5 31/76/5 32/75/5 52/172/5
f 42/156/5 68/171/5 52/172/5 50/153/5
f 112/173/8 113/174/8 85/175/8 84/176/8
f 157/177/2 158/178/2 96/179/2 113/180/2
f 159/181/8 95/182/8 100/183/8 160/184/8
f 119/163/6 97/185/6 98/186/6 120/164/6
f 89/187/9 88/188/9 96/189/9 99/190/9
f 93/191/9 92/192/9 94/193/9 101/194/9
f 91/195/9 90/196/9 104/197/9 103/198/9
f 87/199/9 86/200/9 108/201/9 107/202/9
f 117/203/8 118/204/8 107/202/8 108/201/8
f 86/205/5 109/206/5 98/207/5 89/208/5
f 76/169/5 104/209/5 101/210/5 75/170/5
f 90/211/5 105/212/5 100/213/5 93/214/5
f 117/215/5 108/216/5 99/217/5 114/218/5
f 97/219/2 119/106/2 73/105/2 111/220/2
f 104/209/5 90/211/5 93/214/5 101/210/5
f 102/221/9 105/222/9 90/196/9 91/195/9
f 100/183/9 95/182/9 92/192/9 93/191/9
f 108/216/5 86/205/5 89/208/5 99/217/5
f 106/223/9 109/224/9 86/200/9 87/199/9
f 98/186/9 97/185/9 88/188/9 89/187/9
f 92/225/5 95/226/5 112/227/5 84/228/5
f 109/206/5 121/143/5 120/146/5 98/207/5
f 121/131/6 109/224/6 106/223/6 77/132/6
f 84/176/6 85/175/6 111/229/6 110/230/6
f 95/226/5 159/231/5 156/232/5 112/227/5
f 115/233/8 105/222/8 102/221/8 116/234/8
f 158/235/8 114/236/8 99/190/8 96/189/8
f 96/179/2 88/237/2 85/238/2 113/180/2
f 97/219/2 111/220/2 85/238/2 88/237/2
f 156/239/8 157/240/8 113/174/8 112/173/8
f 105/212/5 115/241/5 160/242/5 100/213/5
f 110/230/6 111/229/6 73/168/6 72/167/6
f 104/243/6 76/161/6 122/162/6 103/244/6
f 94/193/6 74/109/6 75/112/6 101/194/6
f 110/245/5 72/160/5 74/159/5 94/246/5
f 84/228/5 110/245/5 94/246/5 92/225/5
f 151/247/3 152/248/3 124/249/3 123/250/3
f 36/53/2 37/52/2 135/251/2 152/252/2
f 153/94/3 134/253/3 139/254/3 40/95/3
f 158/235/8 136/255/8 137/256/8 114/236/8
f 128/257/10 127/258/10 135/259/10 138/260/10
f 132/261/10 131/262/10 133/263/10 140/264/10
f 130/265/10 129/266/10 143/267/10 142/268/10
f 126/269/10 125/270/10 147/271/10 146/272/10
f 38/67/3 39/70/3 146/272/3 147/271/3
f 125/273/5 148/274/5 137/275/5 128/276/5
f 115/241/5 143/277/5 140/278/5 160/242/5
f 129/279/5 144/280/5 139/281/5 132/282/5
f 38/65/5 147/283/5 138/284/5 154/66/5
f 136/285/2 158/178/2 157/177/2 150/286/2
f 143/277/5 129/279/5 132/282/5 140/278/5
f 141/287/10 144/288/10 129/266/10 130/265/10
f 139/254/10 134/253/10 131/262/10 132/261/10
f 147/283/5 125/273/5 128/276/5 138/284/5
f 145/289/10 148/290/10 125/270/10 126/269/10
f 137/256/10 136/255/10 127/258/10 128/257/10
f 131/291/5 134/292/5 151/293/5 123/294/5
f 148/274/5 117/215/5 114/218/5 137/275/5
f 117/203/8 148/290/8 145/289/8 118/204/8
f 123/250/8 124/249/8 150/295/8 149/296/8
f 134/292/5 153/99/5 35/98/5 151/293/5
f 155/90/3 144/288/3 141/287/3 41/91/3
f 37/13/3 154/16/3 138/260/3 135/259/3
f 135/251/2 127/297/2 124/298/2 152/252/2
f 136/285/2 150/286/2 124/298/2 127/297/2
f 35/88/3 36/87/3 152/248/3 151/247/3
f 144/280/5 155/39/5 40/42/5 139/281/5
f 149/296/8 150/295/8 157/240/8 156/239/8
f 143/267/8 115/233/8 116/234/8 142/268/8
f 133/263/8 159/181/8 160/184/8 140/264/8
f 149/299/5 156/232/5 159/231/5 133/300/5
f 123/294/5 149/299/5 133/300/5 131/291/5
f 174/301/5 45/302/5 65/303/5 77/304/5
f 167/305/8 168/306/8 165/307/8 166/308/8
f 162/309/5 165/307/5 168/306/5 164/310/5
f 161/311/2 163/312/2 167/305/2 166/308/2
f 163/313/3 164/314/3 168/306/3 167/305/3
f 162/315/6 161/316/6 166/308/6 165/307/6
f 177/317/2 130/318/2 142/319/2 170/320/2
f 8/321/2 20/322/2 41/323/2 177/317/2
f 49/324/2 178/325/2 122/326/2 60/327/2
f 178/325/2 91/328/2 103/329/2 122/326/2
f 83/330/2 169/331/2 171/332/2 61/333/2
f 169/331/2 116/334/2 102/335/2 171/332/2
f 170/320/2 142/319/2 116/334/2 169/331/2
f 176/336/5 172/337/5 118/338/5 145/339/5
f 87/340/5 174/301/5 77/304/5 106/341/5
f 24/342/5 34/343/5 172/337/5 176/336/5
f 118/338/5 172/337/5 173/344/5 107/345/5
f 172/337/5 34/343/5 64/346/5 173/344/5
f 107/345/5 173/344/5 174/301/5 87/340/5
f 173/344/5 64/346/5 45/302/5 174/301/5
f 39/347/5 175/348/5 126/349/5 146/350/5
f 23/351/5 4/352/5 175/348/5 39/347/5
f 175/348/5 176/336/5 145/339/5 126/349/5
f 4/352/5 24/342/5 176/336/5 175/348/5
f 19/353/2 170/320/2 169/331/2 83/330/2
f 41/323/2 141/354/2 130/318/2 177/317/2
f 19/353/2 8/321/2 177/317/2 170/320/2
f 171/332/2 102/335/2 91/328/2 178/325/2
f 61/333/2 171/332/2 178/325/2 49/324/2
